# xmcd CD database file
#
# Track frame offsets:
#	182
#	23887
#	48512
#	82442
#	106115
#	118595
#	152765
#	186715
#	212367
#	237470
#
# Disc length: 3638 seconds
#
# Revision: 3
# Processed by: cddbd v1.5.1PL2 Copyright (c) Steve Scherf et al.
# Submitted via: FreeDB 11.5
#
DISCID=8a0e340a
DTITLE=Amazing Amazons - Amazing Amazons
DYEAR=1995
DGENRE=Latin
TTITLE0=O norte
TTITLE1=Galã
TTITLE2=Saudade
TTITLE3=Maj-Britt kadu
TTITLE4=Sonhos abraçados
TTITLE5=Uma gôta
TTITLE6=Amanhecer
TTITLE7=Malandro
TTITLE8=Amante da vida
TTITLE9=Segrêdos
EXTD=
EXTT0=
EXTT1=
EXTT2=
EXTT3=
EXTT4=
EXTT5=
EXTT6=
EXTT7=
EXTT8=
EXTT9=
PLAYORDER=
